<?xml version="1.0" standalone="no"?>
<!DOCTYPE svg PUBLIC "-//W3C//DTD SVG 20010904//EN"
 "http://www.w3.org/TR/2001/REC-SVG-20010904/DTD/svg10.dtd">
<svg version="1.0" xmlns="http://www.w3.org/2000/svg"
 width="240.000000pt" height="240.000000pt" viewBox="0 0 240.000000 240.000000"
 preserveAspectRatio="xMidYMid meet">
<metadata>
Created by potrace 1.14, written by Peter Selinger 2001-2017
</metadata>
<g transform="translate(0.000000,240.000000) scale(0.100000,-0.100000)"
fill="#000000" stroke="none">
<path d="M791 2184 c-222 -37 -340 -131 -386 -305 -10 -35 -13 -102 -11 -222
2 -94 -1 -183 -6 -197 -26 -76 -136 -137 -250 -139 l-38 -1 0 -119 0 -118 45
-6 c90 -13 186 -83 227 -165 22 -44 23 -59 23 -237 0 -186 1 -191 27 -245 31
-62 58 -96 106 -129 41 -29 138 -67 194 -76 24 -4 52 -9 63 -11 11 -3 64 -7
118 -10 l97 -6 0 101 0 101 -37 1 c-64 1 -147 8 -173 15 -14 3 -36 8 -49 10
-56 11 -114 56 -133 104 -9 24 -11 149 -5 250 5 68 -20 177 -56 244 -29 55
-129 166 -149 166 -17 0 -7 21 15 29 39 15 127 102 152 150 26 53 39 107 38
166 -1 22 -2 87 -3 145 -3 119 9 176 46 219 49 59 171 98 317 100 l37 1 0 101
0 100 -70 -3 c-39 -1 -102 -8 -139 -14z"/>
<path d="M1400 2101 l0 -101 38 -1 c115 -3 199 -21 259 -55 97 -56 113 -118
100 -384 -4 -68 12 -139 41 -193 27 -51 110 -133 149 -148 30 -11 29 -23 -4
-44 -62 -41 -131 -132 -157 -208 -22 -64 -28 -109 -27 -182 0 -33 1 -99 2
-146 1 -69 -3 -93 -20 -126 -37 -73 -146 -109 -343 -112 l-38 -1 0 -101 0
-102 103 7 c127 8 153 12 247 42 129 40 204 108 240 216 15 44 18 81 15 217
-2 123 1 174 12 206 30 90 139 178 236 191 l47 7 0 117 0 117 -57 6 c-122 13
-211 69 -232 144 -5 18 -8 104 -5 190 4 171 -6 237 -45 314 -68 132 -226 210
-455 225 l-106 6 0 -101z"/>
<path d="M1100 1500 l0 -100 100 0 100 0 0 100 0 100 -100 0 -100 0 0 -100z"/>
<path d="M1100 905 l0 -95 40 0 c29 0 40 -4 40 -15 0 -25 -27 -71 -54 -92 -20
-17 -22 -22 -12 -41 l12 -22 50 25 c88 44 120 107 123 243 l2 92 -100 0 -101
0 0 -95z"/>
</g>
</svg>
